<svg width="171" height="43" viewBox="0 0 171 43" fill="none" xmlns="http://www.w3.org/2000/svg">
<path fill-rule="evenodd" clip-rule="evenodd" d="M162.239 30.7743V15.7105V0.646592H164.27H166.301V14.7586C166.301 24.4682 166.384 29.1082 166.566 29.6328C166.714 30.0594 167.13 30.5505 167.51 30.7476C167.884 30.9416 168.786 31.1001 169.515 31.1001H170.841V32.9784C170.841 34.0117 170.796 34.9018 170.742 34.9567C170.687 35.0119 169.501 34.9939 168.106 34.9171C165.809 34.7908 165.475 34.7112 164.562 34.0764C163.911 33.6239 163.321 32.9139 162.896 32.0746L162.239 30.7743ZM52.4479 10.3582L52.5141 6.82123L52.58 3.2843H54.7178H56.8555L56.9215 6.82123L56.9877 10.3582L58.7797 10.4042C59.7653 10.4296 60.7105 10.4565 60.8804 10.4641C61.1112 10.4745 61.1717 10.9466 61.1194 12.3364L61.0496 14.1948L58.9589 14.2641L56.8682 14.3334V21.7219C56.8682 26.2626 56.965 29.3885 57.1191 29.8324C57.2569 30.2295 57.6383 30.6771 57.9666 30.8273C58.2947 30.9774 59.1496 31.1001 59.8661 31.1001H61.1691V33.1384V35.1766L59.4368 35.1737C58.4839 35.1723 57.1497 35.0226 56.4713 34.8414C55.7932 34.6601 54.9603 34.3107 54.6203 34.0649C54.2805 33.8191 53.7063 33.0245 53.3446 32.2991L52.6868 30.9802L52.5673 22.5875L52.4479 14.1948L51.3129 14.2133L50.178 14.2318V12.2798V10.3279L51.3129 10.343L52.4479 10.3582ZM25.4487 10.1462C25.3636 9.47141 25.2372 8.71918 25.1677 8.47459C25.064 8.10963 25.3354 8.19236 26.6783 8.93547C27.5786 9.43352 28.6005 10.0383 28.9494 10.2795C29.2982 10.5205 29.6354 10.7178 29.6987 10.7178C29.7618 10.7178 31.4116 11.6492 33.3652 12.7877C35.3187 13.9263 37.3676 15.2914 37.9186 15.8213C38.4693 16.3515 39.162 17.3354 39.4573 18.0077C39.8571 18.9175 39.9952 19.6906 39.9971 21.0289C39.9988 22.3343 39.8647 23.1266 39.5082 23.9186C39.238 24.5188 38.6648 25.4123 38.2347 25.9041C37.7962 26.405 35.9689 27.6759 34.0784 28.7945C32.2228 29.8923 30.167 31.0886 29.5099 31.4524C28.8528 31.8164 27.0787 32.842 25.5675 33.7316C24.0562 34.621 22.3358 35.6171 21.7445 35.9449C21.1531 36.2729 18.8414 37.6038 16.6073 38.9025C14.3733 40.2012 11.8465 41.6476 10.9923 42.1169C9.53645 42.9163 9.30469 42.9696 7.28877 42.9677C5.41861 42.9657 4.97873 42.8813 3.91427 42.3195C3.24094 41.9644 2.25437 41.1769 1.72202 40.57C1.18943 39.9628 0.584441 38.9675 0.377521 38.3577C0.170602 37.7481 0.00119609 36.5556 0.00119609 35.7077C0.00119609 34.4973 0.151726 33.8496 0.701998 32.6931C1.0874 31.8828 1.70553 30.934 2.07589 30.5843C2.446 30.2347 4.57684 28.8734 6.8109 27.5594C9.04496 26.2451 11.2492 24.9665 11.7091 24.7178C12.1691 24.4692 14.584 23.0789 17.0756 21.6284C19.8112 20.0357 22.0355 18.5619 22.6907 17.9082C23.2873 17.3128 24.07 16.2338 24.4301 15.5103C24.7902 14.7869 25.2014 13.5599 25.344 12.7839C25.4867 12.0079 25.5338 10.821 25.4487 10.1462ZM74.5326 11.248C75.1146 10.9037 76.0823 10.4888 76.683 10.3263C77.2837 10.1639 78.2664 10.0236 78.8666 10.0145C79.4671 10.0057 80.5423 10.169 81.256 10.3776C81.97 10.586 82.9501 11.0274 83.4342 11.3583L84.3142 11.96L83.503 13.0774C83.0566 13.692 82.4447 14.4986 82.1432 14.8698L81.5946 15.5448L80.4016 14.8698C79.3694 14.2857 78.9515 14.1948 77.2973 14.1948C75.6439 14.1948 75.2355 14.2835 74.2717 14.8521C73.6588 15.2137 72.9061 15.9151 72.5991 16.4107C72.044 17.3068 72.0402 17.3644 71.97 26.1245L71.8992 34.9368H69.7598H67.6204V22.7074C67.6204 12.0024 67.665 10.4764 67.9788 10.4653C68.1759 10.4584 69.1166 10.4466 70.0695 10.439L71.8018 10.4253L71.9212 11.9086L72.0407 13.392L72.7575 12.6331C73.1518 12.2156 73.9505 11.5924 74.5326 11.248ZM91.9317 10.954C92.6877 10.6692 93.7362 10.3423 94.2618 10.2275C94.7875 10.1128 96.1853 10.0642 97.368 10.1193C98.5508 10.1745 100.023 10.3788 100.641 10.5732C101.258 10.7677 101.999 11.0538 102.288 11.2089C102.577 11.3641 103.291 11.9333 103.875 12.4736C104.459 13.0141 105.183 13.9462 105.484 14.5449C105.784 15.1437 106.151 16.2055 106.299 16.9042C106.468 17.7066 106.567 21.2639 106.567 26.5558V34.9368H104.417H102.266V34.2011V33.4654L101.609 33.9275C101.248 34.1817 100.361 34.5879 99.6379 34.8299C98.6819 35.15 97.6399 35.2665 95.8149 35.2572C94.0855 35.2483 92.8977 35.1114 91.9919 34.8159C91.2691 34.5802 90.3015 34.117 89.8415 33.7863C89.3816 33.4558 88.7864 32.959 88.519 32.6823C88.2516 32.4056 87.7831 31.5924 87.4777 30.8752C86.9927 29.7364 86.9348 29.2806 87.0223 27.2783C87.0971 25.5571 87.2471 24.7464 87.6237 24.0263C87.8994 23.4987 88.4308 22.7822 88.804 22.4341C89.1775 22.0859 89.9354 21.5737 90.4881 21.2955C91.0407 21.0176 92.2235 20.6841 93.1164 20.5546C94.0093 20.4251 96.4476 20.3169 98.535 20.3143L102.33 20.3095L102.211 18.6312C102.12 17.3538 101.941 16.7249 101.461 15.9983C101.115 15.4732 100.426 14.8358 99.9306 14.5821C99.4351 14.3284 98.5438 14.0476 97.9501 13.9581C97.3566 13.8689 96.2082 13.9164 95.3985 14.0637C94.5885 14.2111 93.4638 14.5471 92.8992 14.8101C92.3346 15.0732 91.7014 15.4089 91.4923 15.5559C91.1881 15.7695 90.8173 15.6223 89.6406 14.8202C88.831 14.2684 88.1689 13.716 88.1689 13.592C88.1689 13.468 88.7063 12.9405 89.3632 12.4194C90.02 11.8983 91.1757 11.2389 91.9317 10.954ZM142.288 10.6483C142.945 10.4373 143.752 10.2193 144.08 10.1642C144.409 10.109 145.183 10.0491 145.801 10.0311C146.418 10.0131 147.494 10.1198 148.19 10.268C148.886 10.4164 149.94 10.7828 150.531 11.0823C151.123 11.3818 152.051 12.0787 152.595 12.6309C153.138 13.1829 153.855 14.1382 154.188 14.754C154.52 15.3696 154.975 16.5748 155.198 17.432C155.45 18.4032 155.615 20.0299 155.636 21.7483L155.669 24.5059L147.784 24.562L139.899 24.6178L139.928 25.77C139.944 26.4038 140.175 27.3512 140.441 27.8754C140.708 28.3996 141.233 29.1396 141.607 29.5199C141.982 29.9002 142.772 30.4338 143.363 30.7057C144.172 31.0774 144.912 31.1975 146.35 31.1903C147.8 31.1831 148.55 31.0512 149.456 30.6438C150.113 30.3484 150.993 29.8448 151.411 29.5245C151.83 29.2041 152.257 28.942 152.36 28.942C152.463 28.942 153.115 29.5048 153.809 30.1928C154.503 30.8807 155.071 31.515 155.071 31.6027C155.071 31.6903 154.495 32.1989 153.79 32.7331C153.085 33.2671 152.09 33.8817 151.579 34.0987C151.069 34.316 150.167 34.6646 149.576 34.874C148.888 35.1171 147.683 35.2557 146.231 35.2584C144.982 35.2605 143.531 35.1217 143.005 34.95C142.479 34.7781 141.512 34.3946 140.855 34.0978C140.18 33.7932 139.158 33.0197 138.508 32.3214C137.875 31.6413 137.094 30.5102 136.774 29.8081C136.454 29.106 136.074 27.8956 135.93 27.1182C135.774 26.2779 135.713 24.1493 135.78 21.8682C135.872 18.7322 135.987 17.7689 136.41 16.593C136.694 15.8019 137.188 14.7598 137.506 14.2773C137.824 13.7946 138.368 13.1155 138.714 12.7678C139.061 12.4201 139.738 11.8873 140.219 11.584C140.7 11.2804 141.631 10.8593 142.288 10.6483ZM111.002 12.4108C110.666 11.5617 110.39 10.7792 110.39 10.6723C110.39 10.5656 111.385 10.4793 112.6 10.4809L114.81 10.4838L115.718 13.0587C116.217 14.4749 117.009 16.7126 117.479 18.0315C117.948 19.3503 118.797 21.7243 119.364 23.3069C119.931 24.8895 120.607 26.7779 120.867 27.5033L121.338 28.8221L121.616 28.1027C121.768 27.7071 122.254 26.3583 122.694 25.1053C123.135 23.8524 123.997 21.4245 124.61 19.71C125.223 17.9955 126.137 15.4058 126.641 13.955C127.146 12.5043 127.632 11.1286 127.721 10.8977C127.86 10.539 128.213 10.4781 130.154 10.4781C132.221 10.4781 132.408 10.5155 132.253 10.8977C132.159 11.1286 131.436 12.9899 130.646 15.0341C129.857 17.0783 128.465 20.6932 127.552 23.0671C126.64 25.4411 125.401 28.6782 124.798 30.2609C124.196 31.8435 123.567 33.516 123.401 33.9776L123.098 34.8169H121.389H119.68L118.956 33.0185C118.557 32.0293 117.763 29.9791 117.19 28.4624C116.618 26.9457 115.659 24.4099 115.059 22.8273C114.458 21.2447 113.862 19.734 113.733 19.4702C113.605 19.2065 113.075 17.8576 112.557 16.4728C112.038 15.088 111.339 13.2601 111.002 12.4108ZM150.118 15.7873C149.784 15.3444 149.069 14.7802 148.528 14.5336C147.863 14.2306 147.003 14.0867 145.872 14.0896C144.916 14.092 143.842 14.249 143.363 14.4567C142.903 14.6562 142.166 15.1645 141.724 15.5863C141.282 16.0079 140.721 16.8119 140.478 17.373C140.234 17.9339 139.963 18.9321 139.876 19.5911L139.718 20.7891H145.753H151.788L151.631 19.604C151.545 18.9523 151.305 18.0082 151.099 17.5059C150.893 17.0037 150.451 16.2304 150.118 15.7873ZM102.147 30.2609L102.214 27.2035L102.281 24.1462L97.9128 24.1517C94.4004 24.156 93.3933 24.2323 92.7699 24.5406C92.3437 24.7514 91.7793 25.2744 91.5155 25.7024C91.2035 26.2091 91.0362 26.898 91.0362 27.6759C91.0362 28.5202 91.1939 29.1041 91.5738 29.665C91.8696 30.1016 92.5415 30.6841 93.0672 30.9594C93.8836 31.3869 94.441 31.4591 96.8901 31.4545C99.4547 31.4498 99.8835 31.3864 100.952 30.8551L102.147 30.2609Z" fill="#6D6E70"/>
</svg>
