<svg width="15" height="15" viewBox="0 0 15 15" fill="none" xmlns="http://www.w3.org/2000/svg">
<path d="M6.95053 8.76172C7.08725 8.625 7.36069 8.625 7.49741 8.76172L9.60287 10.8672C9.98569 11.25 10.5052 11.4688 11.0521 11.4688H11.4622L8.80991 14.1211C7.98959 14.9414 6.64975 14.9414 5.80209 14.1211L3.14975 11.4688H3.39584C3.94272 11.4688 4.46225 11.25 4.84506 10.8672L6.95053 8.76172ZM7.49741 6.73828C7.33334 6.90234 7.08725 6.90234 6.95053 6.73828L4.84506 4.66016C4.46225 4.25 3.94272 4.05859 3.39584 4.05859H3.14975L5.80209 1.37891C6.64975 0.558594 7.98959 0.558594 8.80991 1.37891L11.4622 4.03125H11.0521C10.5052 4.03125 9.98569 4.25 9.60287 4.63281L7.49741 6.73828ZM3.39584 4.66016C3.77866 4.66016 4.13412 4.82422 4.40756 5.09766L6.51303 7.17578C6.70444 7.36719 6.97787 7.47656 7.22397 7.47656C7.47006 7.47656 7.7435 7.36719 7.93491 7.17578L10.0404 5.07031C10.3138 4.82422 10.6693 4.66016 11.0521 4.66016H12.0912L13.6771 6.24609C14.4974 7.09375 14.4974 8.43359 13.6771 9.25391L12.0912 10.8398H11.0521C10.6693 10.8398 10.3138 10.7031 10.0404 10.4297L7.93491 8.32422C7.55209 7.94141 6.89584 7.94141 6.51303 8.32422L4.40756 10.4297C4.13412 10.6758 3.77866 10.8398 3.39584 10.8398H2.52084L0.934906 9.25391C0.114594 8.43359 0.114594 7.09375 0.934906 6.24609L2.52084 4.66016H3.39584Z" fill="#707A81"/>
</svg>
